<svg xmlns="http://www.w3.org/2000/svg" xmlns:xlink="http://www.w3.org/1999/xlink" width="1024" zoomAndPan="magnify" viewBox="0 0 768 767.999994" height="1024" preserveAspectRatio="xMidYMid meet" version="1.0"><path fill="#a3d6ff" d="M 522.898438 100.71875 C 512.386719 76.160156 488.820312 57.96875 462.621094 52.683594 C 436.421875 47.398438 408.238281 54.683594 387.015625 70.921875 C 355.304688 95.1875 340.699219 136.433594 338.210938 176.269531 C 335.726562 216.105469 342.296875 257.855469 349.148438 294.328125 C 341.511719 259.90625 334.84375 237.191406 327.09375 208.308594 C 319.347656 179.429688 307.367188 150.546875 285.4375 130.203125 C 265.554688 111.757812 243.402344 99.753906 216.890625 93.996094 C 200.769531 90.496094 179.582031 92.648438 163.59375 96.726562 C 151.535156 99.804688 140.5 106.34375 131.371094 114.796875 C 110.917969 133.734375 100.367188 159.75 99.613281 187.601562 C 98.859375 215.453125 106.167969 241.917969 118.945312 266.675781 C 125.449219 279.289062 134.234375 292.449219 143.996094 302.75 C 168.71875 328.847656 204.332031 341.394531 239.128906 350.464844 L 489.824219 275.125 C 515.566406 238.195312 529.972656 193.488281 530.636719 148.488281 C 530.878906 132.238281 529.292969 115.660156 522.898438 100.714844 Z M 522.898438 100.71875 " fill-opacity="1" fill-rule="nonzero"/><path fill="#feca7a" d="M 161.09375 442.457031 C 169.113281 424.902344 179.757812 407.121094 192.640625 392.746094 C 270.296875 306.101562 387.902344 269.136719 504.042969 276.773438 C 555.339844 280.144531 609.632812 297.574219 648.300781 342.398438 C 661.605469 357.820312 672.152344 376.902344 679.125 396.035156 C 707.265625 473.238281 703.347656 555.40625 651.378906 619.070312 C 617.710938 660.316406 568.144531 686.136719 516.871094 700.535156 C 446.882812 720.1875 371.476562 720.179688 301.492188 700.507812 C 262.792969 689.628906 224.703125 672.09375 197.632812 642.386719 C 147.378906 587.238281 129.210938 512.246094 161.09375 442.457031 Z M 161.09375 442.457031 " fill-opacity="1" fill-rule="nonzero"/><path fill="#614d48" d="M 192.640625 392.746094 C 192.195312 393.246094 191.753906 393.757812 191.3125 394.265625 C 195.984375 488.964844 212.027344 584.109375 238.945312 675.03125 L 238.945312 675.035156 C 258.390625 686.25 279.84375 694.421875 301.492188 700.507812 C 317.894531 705.117188 334.597656 708.632812 351.453125 711.082031 C 307.679688 588.375 281.164062 457.554688 273.078125 327.539062 C 243.367188 344.808594 216.167969 366.492188 192.640625 392.746094 Z M 192.640625 392.746094 " fill-opacity="1" fill-rule="nonzero"/><path fill="#614d48" d="M 338.257812 297.886719 C 353.40625 440.722656 392.957031 582.925781 454.597656 712.691406 C 475.632812 710.300781 496.480469 706.257812 516.867188 700.53125 C 531.015625 696.5625 545.03125 691.714844 558.617188 685.917969 C 494.539062 560.179688 457.371094 418.226562 436.191406 277.441406 C 402.644531 280.34375 369.65625 287.117188 338.257812 297.886719 Z M 338.257812 297.886719 " fill-opacity="1" fill-rule="nonzero"/><path fill="#614d48" d="M 537.628906 416.882812 C 536.144531 416.882812 534.863281 415.769531 534.6875 414.257812 C 532.703125 397.09375 543.9375 379.195312 560.265625 373.507812 C 576.589844 367.820312 596.523438 374.867188 605.648438 389.542969 C 607.578125 392.652344 609.019531 395.957031 610.410156 399.152344 C 611.0625 400.652344 610.375 402.394531 608.875 403.050781 C 607.371094 403.699219 605.628906 403.015625 604.972656 401.515625 C 603.667969 398.515625 602.316406 395.410156 600.609375 392.667969 C 592.890625 380.25 576.03125 374.292969 562.214844 379.105469 C 548.402344 383.914062 538.898438 399.058594 540.578125 413.578125 C 540.765625 415.203125 539.597656 416.675781 537.972656 416.863281 C 537.855469 416.875 537.742188 416.882812 537.628906 416.882812 Z M 537.628906 416.882812 " fill-opacity="1" fill-rule="nonzero"/><path fill="#614d48" d="M 549.417969 286.328125 C 549.367188 286.328125 549.316406 286.328125 549.265625 286.324219 C 548.066406 286.261719 547.027344 285.484375 546.625 284.359375 C 538.410156 261.292969 546.578125 233.191406 566.492188 216.027344 C 584.574219 200.4375 610.84375 194.121094 636.761719 199.136719 C 638.371094 199.445312 639.421875 201.003906 639.109375 202.609375 C 638.800781 204.214844 637.242188 205.265625 635.636719 204.953125 C 611.488281 200.285156 587.085938 206.097656 570.367188 220.511719 C 554.199219 234.449219 546.515625 256.226562 550.335938 275.550781 C 556.921875 265.050781 565.816406 257.5 574.609375 250.890625 C 580.875 246.183594 594.527344 240.394531 602.703125 238.980469 C 623.066406 235.460938 632.835938 237.714844 646.359375 240.832031 C 647.953125 241.199219 648.949219 242.789062 648.582031 244.382812 C 648.214844 245.976562 646.625 246.976562 645.027344 246.605469 C 631.699219 243.53125 622.898438 241.503906 603.714844 244.820312 C 596.398438 246.085938 583.746094 251.4375 578.175781 255.625 C 568.257812 263.078125 558.230469 271.753906 552.09375 284.636719 C 551.597656 285.671875 550.554688 286.328125 549.417969 286.328125 Z M 549.417969 286.328125 " fill-opacity="1" fill-rule="nonzero"/><path fill="#614d48" d="M 658.011719 207.09375 C 660.128906 202.484375 658.726562 197.828125 654.257812 194.636719 C 648.867188 190.777344 641.125 192.765625 636.757812 196.917969 C 632.71875 200.757812 631.976562 205.886719 634.820312 210.3125 C 636.265625 212.558594 638.777344 214.214844 641.898438 214.972656 C 642.875 215.207031 643.855469 215.320312 644.828125 215.320312 C 650.566406 215.320312 656.003906 211.476562 658.011719 207.09375 Z M 658.011719 207.09375 " fill-opacity="1" fill-rule="nonzero"/><path fill="#614d48" d="M 665.027344 235.578125 C 662.464844 232.621094 658.714844 231.15625 654.472656 231.484375 C 651.355469 231.714844 648.503906 233.339844 646.238281 236.183594 C 643.171875 240.03125 641.507812 245.886719 642.195312 250.425781 C 643.042969 256.019531 648.507812 260.324219 654.34375 260.324219 C 654.882812 260.324219 655.425781 260.289062 655.96875 260.210938 C 661.675781 259.410156 666.59375 254.652344 667.925781 248.632812 C 668.996094 243.785156 667.914062 238.90625 665.027344 235.578125 Z M 665.027344 235.578125 " fill-opacity="1" fill-rule="nonzero"/><path fill="#614d48" d="M 153.136719 568.90625 C 153.054688 568.90625 152.964844 568.902344 152.882812 568.898438 C 123.257812 566.441406 93.21875 563.234375 63.59375 559.367188 C 62.300781 559.195312 61.269531 558.203125 61.054688 556.914062 C 60.839844 555.628906 61.492188 554.351562 62.664062 553.773438 C 89.335938 540.570312 116.746094 527.980469 144.121094 516.347656 C 145.628906 515.703125 147.371094 516.410156 148.011719 517.914062 C 148.652344 519.421875 147.949219 521.160156 146.441406 521.800781 C 122.1875 532.105469 97.910156 543.167969 74.140625 554.742188 C 100.480469 558.039062 127.078125 560.8125 153.34375 562.992188 C 154.878906 563.101562 156.097656 564.382812 156.097656 565.945312 C 156.097656 567.582031 154.773438 568.90625 153.136719 568.90625 Z M 153.136719 568.90625 " fill-opacity="1" fill-rule="nonzero"/></svg>