<svg xmlns="http://www.w3.org/2000/svg" xmlns:xlink="http://www.w3.org/1999/xlink" width="530" zoomAndPan="magnify" viewBox="0 0 397.5 106.499997" height="142" preserveAspectRatio="xMidYMid meet" version="1.0"><defs><g/><clipPath id="110f058e65"><path d="M 5 7.292969 L 65 7.292969 L 65 49 L 5 49 Z M 5 7.292969 " clip-rule="nonzero"/></clipPath><clipPath id="abe6754ffd"><path d="M 0.679688 70 L 14 70 L 14 78 L 0.679688 78 Z M 0.679688 70 " clip-rule="nonzero"/></clipPath></defs><g clip-path="url(#110f058e65)"><path fill="#a3d6ff" d="M 63.109375 14.503906 C 61.691406 11.179688 58.507812 8.71875 54.96875 8.003906 C 51.425781 7.285156 47.621094 8.273438 44.753906 10.472656 C 40.46875 13.753906 38.496094 19.339844 38.160156 24.730469 C 37.824219 30.125 38.710938 35.777344 39.636719 40.714844 C 38.605469 36.054688 37.703125 32.980469 36.65625 29.070312 C 35.609375 25.160156 33.992188 21.25 31.027344 18.496094 C 28.34375 16 25.351562 14.375 21.769531 13.59375 C 19.589844 13.121094 16.726562 13.410156 14.566406 13.964844 C 12.9375 14.378906 11.445312 15.265625 10.214844 16.410156 C 7.449219 18.972656 6.023438 22.496094 5.921875 26.265625 C 5.820312 30.035156 6.808594 33.617188 8.535156 36.972656 C 9.414062 38.679688 10.601562 40.460938 11.917969 41.855469 C 15.257812 45.386719 20.070312 47.085938 24.773438 48.3125 L 58.640625 38.113281 C 62.121094 33.113281 64.066406 27.0625 64.15625 20.972656 C 64.1875 18.769531 63.976562 16.527344 63.109375 14.503906 Z M 63.109375 14.503906 " fill-opacity="1" fill-rule="nonzero"/></g><path fill="#feca7a" d="M 14.230469 60.765625 C 15.3125 58.390625 16.75 55.984375 18.492188 54.039062 C 28.984375 42.308594 44.871094 37.304688 60.5625 38.335938 C 67.492188 38.792969 74.828125 41.152344 80.054688 47.222656 C 81.851562 49.308594 83.277344 51.890625 84.21875 54.484375 C 88.019531 64.933594 87.492188 76.058594 80.46875 84.675781 C 75.921875 90.257812 69.222656 93.753906 62.296875 95.703125 C 52.839844 98.363281 42.652344 98.363281 33.199219 95.699219 C 27.96875 94.226562 22.824219 91.855469 19.167969 87.832031 C 12.375 80.367188 9.921875 70.214844 14.230469 60.765625 Z M 14.230469 60.765625 " fill-opacity="1" fill-rule="nonzero"/><path fill="#614d48" d="M 18.492188 54.039062 C 18.429688 54.105469 18.371094 54.175781 18.3125 54.242188 C 18.941406 67.0625 21.109375 79.941406 24.746094 92.25 C 27.375 93.769531 30.273438 94.875 33.199219 95.699219 C 35.414062 96.324219 37.671875 96.800781 39.949219 97.132812 C 34.035156 80.519531 30.453125 62.808594 29.359375 45.210938 C 25.34375 47.546875 21.671875 50.484375 18.492188 54.039062 Z M 18.492188 54.039062 " fill-opacity="1" fill-rule="nonzero"/><path fill="#614d48" d="M 38.164062 41.195312 C 40.210938 60.53125 45.554688 79.78125 53.882812 97.347656 C 56.726562 97.027344 59.542969 96.476562 62.296875 95.703125 C 64.207031 95.164062 66.101562 94.507812 67.9375 93.726562 C 59.28125 76.703125 54.257812 57.488281 51.398438 38.429688 C 46.863281 38.820312 42.40625 39.738281 38.164062 41.195312 Z M 38.164062 41.195312 " fill-opacity="1" fill-rule="nonzero"/><path fill="#614d48" d="M 65.101562 57.304688 C 64.902344 57.304688 64.726562 57.152344 64.703125 56.949219 C 64.4375 54.625 65.953125 52.203125 68.160156 51.433594 C 70.363281 50.664062 73.058594 51.617188 74.289062 53.605469 C 74.550781 54.023438 74.746094 54.472656 74.933594 54.902344 C 75.023438 55.105469 74.929688 55.34375 74.726562 55.433594 C 74.523438 55.519531 74.289062 55.425781 74.199219 55.222656 C 74.023438 54.816406 73.839844 54.398438 73.609375 54.027344 C 72.566406 52.34375 70.289062 51.539062 68.421875 52.191406 C 66.558594 52.839844 65.273438 54.890625 65.5 56.859375 C 65.523438 57.078125 65.367188 57.277344 65.148438 57.300781 C 65.132812 57.304688 65.117188 57.304688 65.101562 57.304688 Z M 65.101562 57.304688 " fill-opacity="1" fill-rule="nonzero"/><path fill="#614d48" d="M 66.695312 39.632812 C 66.6875 39.632812 66.679688 39.632812 66.671875 39.628906 C 66.511719 39.621094 66.371094 39.515625 66.316406 39.363281 C 65.207031 36.242188 66.3125 32.4375 69 30.113281 C 71.445312 28.003906 74.992188 27.148438 78.496094 27.828125 C 78.710938 27.871094 78.855469 28.082031 78.8125 28.296875 C 78.769531 28.515625 78.558594 28.65625 78.34375 28.617188 C 75.078125 27.984375 71.78125 28.769531 69.523438 30.722656 C 67.339844 32.609375 66.300781 35.554688 66.816406 38.171875 C 67.707031 36.75 68.910156 35.730469 70.097656 34.832031 C 70.945312 34.195312 72.789062 33.414062 73.894531 33.222656 C 76.644531 32.746094 77.964844 33.050781 79.792969 33.472656 C 80.007812 33.523438 80.140625 33.738281 80.089844 33.953125 C 80.042969 34.167969 79.828125 34.304688 79.609375 34.253906 C 77.8125 33.835938 76.621094 33.5625 74.03125 34.011719 C 73.042969 34.183594 71.332031 34.90625 70.578125 35.476562 C 69.238281 36.484375 67.882812 37.65625 67.054688 39.402344 C 66.988281 39.542969 66.847656 39.632812 66.695312 39.632812 Z M 66.695312 39.632812 " fill-opacity="1" fill-rule="nonzero"/><path fill="#614d48" d="M 81.367188 28.90625 C 81.652344 28.28125 81.460938 27.652344 80.859375 27.21875 C 80.128906 26.695312 79.085938 26.964844 78.492188 27.527344 C 77.949219 28.046875 77.847656 28.742188 78.234375 29.339844 C 78.425781 29.644531 78.765625 29.867188 79.1875 29.972656 C 79.320312 30.003906 79.453125 30.019531 79.585938 30.019531 C 80.359375 30.019531 81.09375 29.5 81.367188 28.90625 Z M 81.367188 28.90625 " fill-opacity="1" fill-rule="nonzero"/><path fill="#614d48" d="M 82.3125 32.761719 C 81.96875 32.359375 81.460938 32.160156 80.886719 32.207031 C 80.464844 32.238281 80.082031 32.457031 79.773438 32.84375 C 79.359375 33.363281 79.136719 34.15625 79.230469 34.769531 C 79.34375 35.527344 80.082031 36.109375 80.871094 36.109375 C 80.941406 36.109375 81.015625 36.105469 81.089844 36.09375 C 81.859375 35.988281 82.523438 35.34375 82.703125 34.527344 C 82.851562 33.871094 82.703125 33.210938 82.3125 32.761719 Z M 82.3125 32.761719 " fill-opacity="1" fill-rule="nonzero"/><g clip-path="url(#abe6754ffd)"><path fill="#614d48" d="M 13.15625 77.886719 C 13.144531 77.886719 13.132812 77.882812 13.121094 77.882812 C 9.117188 77.550781 5.058594 77.117188 1.058594 76.59375 C 0.882812 76.570312 0.742188 76.4375 0.714844 76.261719 C 0.683594 76.085938 0.773438 75.914062 0.929688 75.835938 C 4.535156 74.050781 8.238281 72.34375 11.9375 70.769531 C 12.140625 70.683594 12.375 70.777344 12.460938 70.980469 C 12.546875 71.1875 12.453125 71.421875 12.25 71.507812 C 8.972656 72.902344 5.691406 74.402344 2.480469 75.96875 C 6.039062 76.414062 9.632812 76.789062 13.183594 77.082031 C 13.390625 77.097656 13.554688 77.273438 13.554688 77.484375 C 13.554688 77.707031 13.375 77.886719 13.15625 77.886719 Z M 13.15625 77.886719 " fill-opacity="1" fill-rule="nonzero"/></g><g fill="#ffffff" fill-opacity="1"><g transform="translate(96.950057, 72.468207)"><g><path d="M 15.21875 -42.453125 L 26.125 -11.65625 L 36.96875 -42.453125 L 48.46875 -42.453125 L 48.46875 0 L 39.6875 0 L 39.6875 -11.609375 L 40.5625 -31.640625 L 29.09375 0 L 23.09375 0 L 11.65625 -31.609375 L 12.53125 -11.609375 L 12.53125 0 L 3.796875 0 L 3.796875 -42.453125 Z M 15.21875 -42.453125 "/></g></g></g><g fill="#ffffff" fill-opacity="1"><g transform="translate(149.252828, 72.468207)"><g><path d="M 1.921875 -16.0625 C 1.921875 -19.195312 2.523438 -21.988281 3.734375 -24.4375 C 4.941406 -26.882812 6.675781 -28.78125 8.9375 -30.125 C 11.195312 -31.46875 13.828125 -32.140625 16.828125 -32.140625 C 21.085938 -32.140625 24.5625 -30.832031 27.25 -28.21875 C 29.9375 -25.613281 31.4375 -22.078125 31.75 -17.609375 L 31.8125 -15.453125 C 31.8125 -10.609375 30.457031 -6.722656 27.75 -3.796875 C 25.050781 -0.878906 21.425781 0.578125 16.875 0.578125 C 12.332031 0.578125 8.703125 -0.878906 5.984375 -3.796875 C 3.273438 -6.710938 1.921875 -10.675781 1.921875 -15.6875 Z M 10.359375 -15.453125 C 10.359375 -12.460938 10.921875 -10.175781 12.046875 -8.59375 C 13.171875 -7.007812 14.785156 -6.21875 16.890625 -6.21875 C 18.921875 -6.21875 20.507812 -7 21.65625 -8.5625 C 22.8125 -10.125 23.390625 -12.625 23.390625 -16.0625 C 23.390625 -19 22.8125 -21.273438 21.65625 -22.890625 C 20.507812 -24.503906 18.898438 -25.3125 16.828125 -25.3125 C 14.765625 -25.3125 13.171875 -24.507812 12.046875 -22.90625 C 10.921875 -21.300781 10.359375 -18.816406 10.359375 -15.453125 Z M 10.359375 -15.453125 "/></g></g></g><g fill="#ffffff" fill-opacity="1"><g transform="translate(182.576138, 72.468207)"><g><path d="M 15.046875 -10.296875 L 20.90625 -31.546875 L 29.71875 -31.546875 L 19.078125 0 L 11.015625 0 L 0.375 -31.546875 L 9.1875 -31.546875 Z M 15.046875 -10.296875 "/></g></g></g><g fill="#ffffff" fill-opacity="1"><g transform="translate(212.75082, 72.468207)"><g><path d="M 12.125 0 L 3.671875 0 L 3.671875 -31.546875 L 12.125 -31.546875 Z M 3.171875 -39.71875 C 3.171875 -40.976562 3.59375 -42.015625 4.4375 -42.828125 C 5.289062 -43.648438 6.445312 -44.0625 7.90625 -44.0625 C 9.34375 -44.0625 10.488281 -43.648438 11.34375 -42.828125 C 12.195312 -42.015625 12.625 -40.976562 12.625 -39.71875 C 12.625 -38.4375 12.191406 -37.382812 11.328125 -36.5625 C 10.460938 -35.75 9.320312 -35.34375 7.90625 -35.34375 C 6.488281 -35.34375 5.34375 -35.75 4.46875 -36.5625 C 3.601562 -37.382812 3.171875 -38.4375 3.171875 -39.71875 Z M 3.171875 -39.71875 "/></g></g></g><g fill="#ffffff" fill-opacity="1"><g transform="translate(228.581597, 72.468207)"><g><path d="M 17.765625 0.578125 C 13.128906 0.578125 9.359375 -0.835938 6.453125 -3.671875 C 3.546875 -6.515625 2.09375 -10.296875 2.09375 -15.015625 L 2.09375 -15.828125 C 2.09375 -19.003906 2.707031 -21.835938 3.9375 -24.328125 C 5.164062 -26.828125 6.898438 -28.753906 9.140625 -30.109375 C 11.390625 -31.460938 13.953125 -32.140625 16.828125 -32.140625 C 21.140625 -32.140625 24.535156 -30.773438 27.015625 -28.046875 C 29.492188 -25.328125 30.734375 -21.46875 30.734375 -16.46875 L 30.734375 -13.03125 L 10.640625 -13.03125 C 10.910156 -10.96875 11.726562 -9.316406 13.09375 -8.078125 C 14.46875 -6.835938 16.207031 -6.21875 18.3125 -6.21875 C 21.5625 -6.21875 24.097656 -7.390625 25.921875 -9.734375 L 30.0625 -5.109375 C 28.800781 -3.316406 27.085938 -1.921875 24.921875 -0.921875 C 22.765625 0.078125 20.378906 0.578125 17.765625 0.578125 Z M 16.796875 -25.3125 C 15.117188 -25.3125 13.757812 -24.742188 12.71875 -23.609375 C 11.6875 -22.484375 11.023438 -20.875 10.734375 -18.78125 L 22.453125 -18.78125 L 22.453125 -19.453125 C 22.410156 -21.316406 21.90625 -22.757812 20.9375 -23.78125 C 19.96875 -24.800781 18.585938 -25.3125 16.796875 -25.3125 Z M 16.796875 -25.3125 "/></g></g></g><g fill="#ffffff" fill-opacity="1"><g transform="translate(260.855386, 72.468207)"><g/></g></g><g fill="#ffffff" fill-opacity="1"><g transform="translate(275.724067, 72.468207)"><g><path d="M 3.796875 0 L 3.796875 -42.453125 L 18.65625 -42.453125 C 23.8125 -42.453125 27.71875 -41.460938 30.375 -39.484375 C 33.039062 -37.515625 34.375 -34.628906 34.375 -30.828125 C 34.375 -28.742188 33.835938 -26.910156 32.765625 -25.328125 C 31.703125 -23.742188 30.21875 -22.582031 28.3125 -21.84375 C 30.488281 -21.300781 32.203125 -20.203125 33.453125 -18.546875 C 34.710938 -16.890625 35.34375 -14.867188 35.34375 -12.484375 C 35.34375 -8.398438 34.039062 -5.304688 31.4375 -3.203125 C 28.832031 -1.109375 25.117188 -0.0390625 20.296875 0 Z M 12.53125 -18.484375 L 12.53125 -7.03125 L 20.03125 -7.03125 C 22.09375 -7.03125 23.703125 -7.519531 24.859375 -8.5 C 26.015625 -9.476562 26.59375 -10.832031 26.59375 -12.5625 C 26.59375 -16.457031 24.582031 -18.429688 20.5625 -18.484375 Z M 12.53125 -24.671875 L 19.015625 -24.671875 C 23.421875 -24.742188 25.625 -26.503906 25.625 -29.953125 C 25.625 -31.867188 25.066406 -33.25 23.953125 -34.09375 C 22.835938 -34.945312 21.070312 -35.375 18.65625 -35.375 L 12.53125 -35.375 Z M 12.53125 -24.671875 "/></g></g></g><g fill="#ffffff" fill-opacity="1"><g transform="translate(313.828712, 72.468207)"><g><path d="M 17.765625 0.578125 C 13.128906 0.578125 9.359375 -0.835938 6.453125 -3.671875 C 3.546875 -6.515625 2.09375 -10.296875 2.09375 -15.015625 L 2.09375 -15.828125 C 2.09375 -19.003906 2.707031 -21.835938 3.9375 -24.328125 C 5.164062 -26.828125 6.898438 -28.753906 9.140625 -30.109375 C 11.390625 -31.460938 13.953125 -32.140625 16.828125 -32.140625 C 21.140625 -32.140625 24.535156 -30.773438 27.015625 -28.046875 C 29.492188 -25.328125 30.734375 -21.46875 30.734375 -16.46875 L 30.734375 -13.03125 L 10.640625 -13.03125 C 10.910156 -10.96875 11.726562 -9.316406 13.09375 -8.078125 C 14.46875 -6.835938 16.207031 -6.21875 18.3125 -6.21875 C 21.5625 -6.21875 24.097656 -7.390625 25.921875 -9.734375 L 30.0625 -5.109375 C 28.800781 -3.316406 27.085938 -1.921875 24.921875 -0.921875 C 22.765625 0.078125 20.378906 0.578125 17.765625 0.578125 Z M 16.796875 -25.3125 C 15.117188 -25.3125 13.757812 -24.742188 12.71875 -23.609375 C 11.6875 -22.484375 11.023438 -20.875 10.734375 -18.78125 L 22.453125 -18.78125 L 22.453125 -19.453125 C 22.410156 -21.316406 21.90625 -22.757812 20.9375 -23.78125 C 19.96875 -24.800781 18.585938 -25.3125 16.796875 -25.3125 Z M 16.796875 -25.3125 "/></g></g></g><g fill="#ffffff" fill-opacity="1"><g transform="translate(346.102514, 72.468207)"><g><path d="M 17.765625 0.578125 C 13.128906 0.578125 9.359375 -0.835938 6.453125 -3.671875 C 3.546875 -6.515625 2.09375 -10.296875 2.09375 -15.015625 L 2.09375 -15.828125 C 2.09375 -19.003906 2.707031 -21.835938 3.9375 -24.328125 C 5.164062 -26.828125 6.898438 -28.753906 9.140625 -30.109375 C 11.390625 -31.460938 13.953125 -32.140625 16.828125 -32.140625 C 21.140625 -32.140625 24.535156 -30.773438 27.015625 -28.046875 C 29.492188 -25.328125 30.734375 -21.46875 30.734375 -16.46875 L 30.734375 -13.03125 L 10.640625 -13.03125 C 10.910156 -10.96875 11.726562 -9.316406 13.09375 -8.078125 C 14.46875 -6.835938 16.207031 -6.21875 18.3125 -6.21875 C 21.5625 -6.21875 24.097656 -7.390625 25.921875 -9.734375 L 30.0625 -5.109375 C 28.800781 -3.316406 27.085938 -1.921875 24.921875 -0.921875 C 22.765625 0.078125 20.378906 0.578125 17.765625 0.578125 Z M 16.796875 -25.3125 C 15.117188 -25.3125 13.757812 -24.742188 12.71875 -23.609375 C 11.6875 -22.484375 11.023438 -20.875 10.734375 -18.78125 L 22.453125 -18.78125 L 22.453125 -19.453125 C 22.410156 -21.316406 21.90625 -22.757812 20.9375 -23.78125 C 19.96875 -24.800781 18.585938 -25.3125 16.796875 -25.3125 Z M 16.796875 -25.3125 "/></g></g></g></svg>